# xmcd
#
# Track frame offsets: 
#        150
#        12585
#        18437
#        29280
#        36943
#        39195
#        47987
#        49935
#        63373
#        81719
#        91189
#        93291
#        101993
#        104995
#        129747
#
# Disc length: 2123 seconds
#
# Revision: 0
# Processed by: cddbd v1.5.1PL0 Copyright (c) Steve Scherf et al.
# Submitted via: ExactAudioCopy v0.95a5
#
DISCID=d208490f
DTITLE=Bling Bling - Crack Hits
DYEAR=2004
DGENRE=Noise
TTITLE0=Da Mornin
TTITLE1=Jealousy
TTITLE2=Old Ragga
TTITLE3=International Bad Boy
TTITLE4=Transmitter
TTITLE5=Time For Breedin
TTITLE6=UFO OG
TTITLE7=UFO Remix
TTITLE8=When We Comin
TTITLE9=Hearts Desire
TTITLE10=Hypno
TTITLE11=Alpha and Omega
TTITLE12=Apockalisp
TTITLE13=Story
TTITLE14=Data Track
EXTD=
EXTT0=
EXTT1=
EXTT2=
EXTT3=
EXTT4=
EXTT5=
EXTT6=
EXTT7=
EXTT8=
EXTT9=
EXTT10=
EXTT11=
EXTT12=
EXTT13=
EXTT14=
PLAYORDER=
